<?xml version="1.0" encoding="utf-8"?>
<!-- Generator: Adobe Illustrator 28.0.0, SVG Export Plug-In . SVG Version: 6.00 Build 0)  -->
<svg version="1.0" id="Layer_1" xmlns="http://www.w3.org/2000/svg" xmlns:xlink="http://www.w3.org/1999/xlink" x="0px" y="0px"
	 viewBox="0 0 856 588.55" style="enable-background:new 0 0 856 588.55;" xml:space="preserve">
<style type="text/css">
	.st0{fill:url(#SVGID_1_);}
	.st1{fill:url(#SVGID_00000049183842522541435760000017477794035193351559_);}
	.st2{fill:url(#SVGID_00000119803387420431849270000011722704787171393180_);}
	.st3{fill:#842123;}
	.st4{fill:url(#SVGID_00000094611080069689889890000008186193635863298484_);}
	.st5{fill:url(#SVGID_00000115480459688082023770000002663099876189081533_);}
	.st6{fill:#FFC49C;}
	.st7{fill:#BBCFDA;}
	.st8{fill:#FFFFFF;}
	.st9{fill:url(#SVGID_00000026163328639451367830000007211971377561173399_);}
	.st10{fill:url(#SVGID_00000147926164476649606180000005961921050966519174_);}
	.st11{fill:url(#SVGID_00000065779290259568354690000017450338013460225694_);}
	.st12{fill:#FF6101;}
	.st13{fill:#FF4500;}
</style>
<symbol  id="Snoo" viewBox="-216.1 -188.86 432.21 377.72">
	<g>
		
			<radialGradient id="SVGID_1_" cx="154.385" cy="1202.9807" r="127.45" fx="154.385" fy="1212.1007" gradientTransform="matrix(1 0 0 0.87 0 -1084.4399)" gradientUnits="userSpaceOnUse">
			<stop  offset="0" style="stop-color:#FEFFFF"/>
			<stop  offset="0.4" style="stop-color:#FEFFFF"/>
			<stop  offset="0.51" style="stop-color:#F9FCFC"/>
			<stop  offset="0.62" style="stop-color:#EDF3F5"/>
			<stop  offset="0.7" style="stop-color:#DEE9EC"/>
			<stop  offset="0.72" style="stop-color:#D8E4E8"/>
			<stop  offset="0.76" style="stop-color:#CCD8DF"/>
			<stop  offset="0.8" style="stop-color:#C8D5DD"/>
			<stop  offset="0.83" style="stop-color:#CCD6DE"/>
			<stop  offset="0.85" style="stop-color:#D8DBE2"/>
			<stop  offset="0.88" style="stop-color:#EDE3E9"/>
			<stop  offset="0.9" style="stop-color:#FFEBEF"/>
		</radialGradient>
		<circle class="st0" cx="153.06" cy="-0.31" r="63.05"/>
		
			<radialGradient id="SVGID_00000018932881818616713530000009672250469651417750_" cx="-151.725" cy="-37.27" r="127.45" fx="-151.725" fy="-28.15" gradientUnits="userSpaceOnUse">
			<stop  offset="0" style="stop-color:#FEFFFF"/>
			<stop  offset="0.4" style="stop-color:#FEFFFF"/>
			<stop  offset="0.51" style="stop-color:#F9FCFC"/>
			<stop  offset="0.62" style="stop-color:#EDF3F5"/>
			<stop  offset="0.7" style="stop-color:#DEE9EC"/>
			<stop  offset="0.72" style="stop-color:#D8E4E8"/>
			<stop  offset="0.76" style="stop-color:#CCD8DF"/>
			<stop  offset="0.8" style="stop-color:#C8D5DD"/>
			<stop  offset="0.83" style="stop-color:#CCD6DE"/>
			<stop  offset="0.85" style="stop-color:#D8DBE2"/>
			<stop  offset="0.88" style="stop-color:#EDE3E9"/>
			<stop  offset="0.9" style="stop-color:#FFEBEF"/>
		</radialGradient>
		<circle style="fill:url(#SVGID_00000018932881818616713530000009672250469651417750_);" cx="-153.05" cy="-0.31" r="63.05"/>
		
			<radialGradient id="SVGID_00000074424688858082124580000016740042012587617704_" cx="4.035" cy="3503.4231" r="384.44" gradientTransform="matrix(1 0 0 0.7 0 -2506.3501)" gradientUnits="userSpaceOnUse">
			<stop  offset="0" style="stop-color:#FEFFFF"/>
			<stop  offset="0.4" style="stop-color:#FEFFFF"/>
			<stop  offset="0.51" style="stop-color:#F9FCFC"/>
			<stop  offset="0.62" style="stop-color:#EDF3F5"/>
			<stop  offset="0.7" style="stop-color:#DEE9EC"/>
			<stop  offset="0.72" style="stop-color:#D8E4E8"/>
			<stop  offset="0.76" style="stop-color:#CCD8DF"/>
			<stop  offset="0.8" style="stop-color:#C8D5DD"/>
			<stop  offset="0.83" style="stop-color:#CCD6DE"/>
			<stop  offset="0.85" style="stop-color:#D8DBE2"/>
			<stop  offset="0.88" style="stop-color:#EDE3E9"/>
			<stop  offset="0.9" style="stop-color:#FFEBEF"/>
		</radialGradient>
		
			<ellipse style="fill:url(#SVGID_00000074424688858082124580000016740042012587617704_);" cx="0.16" cy="53.86" rx="180" ry="135"/>
		<g>
			<path class="st3" d="M-53.07,40.73C-54.12,63.6-69.29,71.9-86.98,71.9s-31.15-11.71-30.09-34.58
				c1.05-22.87,16.23-38.01,33.91-38.01S-52.01,17.85-53.07,40.73L-53.07,40.73z"/>
			<path class="st3" d="M117.38,37.32c1.05,22.87-12.42,34.58-30.09,34.58s-32.85-8.3-33.91-31.17C52.33,17.86,65.8-0.69,83.47-0.69
				S116.32,14.44,117.38,37.32L117.38,37.32z"/>
		</g>
		
			<radialGradient id="SVGID_00000085250534369878082170000008181430303450858914_" cx="-81.405" cy="-2563.4927" r="32.12" gradientTransform="matrix(1 0 0 1.46 0 3794.9004)" gradientUnits="userSpaceOnUse">
			<stop  offset="0" style="stop-color:#FF6600"/>
			<stop  offset="0.5" style="stop-color:#FF4500"/>
			<stop  offset="0.7" style="stop-color:#FC4301"/>
			<stop  offset="0.82" style="stop-color:#F43F07"/>
			<stop  offset="0.92" style="stop-color:#E53812"/>
			<stop  offset="1" style="stop-color:#D4301F"/>
		</radialGradient>
		<path style="fill:url(#SVGID_00000085250534369878082170000008181430303450858914_);" d="M-53.05,42.73
			C-54.04,64.14-68.24,71.9-84.78,71.9s-29.15-11.63-28.16-33.03c0.99-21.41,15.19-35.41,31.73-35.41S-52.07,21.32-53.05,42.73
			L-53.05,42.73z"/>
		
			<radialGradient id="SVGID_00000173134657028450434580000000711677901917973640_" cx="21949.6055" cy="-2563.4927" r="32.12" gradientTransform="matrix(-1 0 0 1.46 22031.3203 3794.9004)" gradientUnits="userSpaceOnUse">
			<stop  offset="0" style="stop-color:#FF6600"/>
			<stop  offset="0.5" style="stop-color:#FF4500"/>
			<stop  offset="0.7" style="stop-color:#FC4301"/>
			<stop  offset="0.82" style="stop-color:#F43F07"/>
			<stop  offset="0.92" style="stop-color:#E53812"/>
			<stop  offset="1" style="stop-color:#D4301F"/>
		</radialGradient>
		<path style="fill:url(#SVGID_00000173134657028450434580000000711677901917973640_);" d="M53.37,42.73
			C54.35,64.14,68.56,71.9,85.1,71.9s29.15-11.63,28.16-33.03C112.27,17.46,98.07,3.46,81.53,3.46S52.38,21.32,53.37,42.73
			L53.37,42.73z"/>
		<ellipse class="st6" cx="-70.91" cy="23.18" rx="7" ry="7.64"/>
		<ellipse class="st6" cx="95.54" cy="23.18" rx="7" ry="7.64"/>
		<path class="st7" d="M0.15,87.16c-22.32,0-43.71,1.08-63.49,3.04c-3.38,0.34-5.52,3.78-4.21,6.86
			c11.08,25.97,37.22,44.21,67.7,44.21s56.62-18.24,67.7-44.21c1.31-3.08-0.83-6.52-4.21-6.86C43.86,88.23,22.47,87.16,0.15,87.16
			L0.15,87.16z"/>
		<path class="st8" d="M0.15,92.12c-22.25,0-43.57,1.09-63.29,3.09c-3.37,0.34-5.51,3.84-4.2,6.97
			c11.05,26.38,37.1,44.91,67.49,44.91s56.44-18.53,67.49-44.91c1.31-3.12-0.83-6.62-4.2-6.97C43.72,93.21,22.4,92.12,0.15,92.12
			L0.15,92.12z"/>
		
			<radialGradient id="SVGID_00000075873645508261246680000010509025763055767459_" cx="-0.175" cy="4425.4893" r="113.26" gradientTransform="matrix(1 0 0 0.66 0 -2769.8699)" gradientUnits="userSpaceOnUse">
			<stop  offset="0" style="stop-color:#172E35"/>
			<stop  offset="0.29" style="stop-color:#0E1C21"/>
			<stop  offset="0.73" style="stop-color:#030708"/>
			<stop  offset="1" style="stop-color:#000000"/>
		</radialGradient>
		<path style="fill:url(#SVGID_00000075873645508261246680000010509025763055767459_);" d="M0.15,89.54
			c-21.9,0-42.89,1.08-62.3,3.04c-3.32,0.34-5.42,3.78-4.13,6.86c10.87,25.97,36.52,44.21,66.44,44.21s55.56-18.24,66.44-44.21
			c1.29-3.08-0.81-6.52-4.13-6.86C43.06,90.61,22.07,89.54,0.15,89.54L0.15,89.54z"/>
		
			<radialGradient id="SVGID_00000013171477745531427890000000175001454202261407_" cx="99.705" cy="-15.9996" r="99.42" gradientTransform="matrix(1 0 0 0.98 0 -169.7198)" gradientUnits="userSpaceOnUse">
			<stop  offset="0" style="stop-color:#FEFFFF"/>
			<stop  offset="0.4" style="stop-color:#FEFFFF"/>
			<stop  offset="0.51" style="stop-color:#F9FCFC"/>
			<stop  offset="0.62" style="stop-color:#EDF3F5"/>
			<stop  offset="0.7" style="stop-color:#DEE9EC"/>
			<stop  offset="0.72" style="stop-color:#D8E4E8"/>
			<stop  offset="0.76" style="stop-color:#CCD8DF"/>
			<stop  offset="0.8" style="stop-color:#C8D5DD"/>
			<stop  offset="0.83" style="stop-color:#CCD6DE"/>
			<stop  offset="0.85" style="stop-color:#D8DBE2"/>
			<stop  offset="0.88" style="stop-color:#EDE3E9"/>
			<stop  offset="0.9" style="stop-color:#FFEBEF"/>
		</radialGradient>
		<circle style="fill:url(#SVGID_00000013171477745531427890000000175001454202261407_);" cx="98.74" cy="-144.18" r="44.68"/>
		
			<radialGradient id="SVGID_00000134216197702426182440000018242405342631490964_" cx="58.275" cy="-85.04" r="81.49" gradientUnits="userSpaceOnUse">
			<stop  offset="0.48" style="stop-color:#7A9299"/>
			<stop  offset="0.67" style="stop-color:#172E35"/>
			<stop  offset="0.75" style="stop-color:#000000"/>
			<stop  offset="0.82" style="stop-color:#172E35"/>
		</radialGradient>
		<path style="fill:url(#SVGID_00000134216197702426182440000018242405342631490964_);" d="M-0.49-75.45
			c-5.35,0-9.69-2.24-9.69-5.69c0-40.03,32.56-72.59,72.59-72.59c5.35,0,9.69,4.34,9.69,9.69c0,5.35-4.34,9.69-9.69,9.69
			c-29.34,0-53.22,23.87-53.22,53.22c0,3.45-4.34,5.69-9.69,5.69L-0.49-75.45z"/>
		<path class="st12" d="M-64.82,53.32c0,8.28-8.81,12-19.69,12s-19.69-3.72-19.69-12s8.81-15,19.69-15S-64.82,45.04-64.82,53.32z"/>
		<path class="st12" d="M104.5,53.32c0,8.28-8.81,12-19.69,12s-19.69-3.72-19.69-12s8.81-15,19.69-15S104.5,45.04,104.5,53.32z"/>
	</g>
</symbol>
<g>
	<path class="st13" d="M428,41.28L428,41.28c-139.74,0-253,113.26-253,253l0,0c0,69.86,28.32,133.11,74.1,178.9l-48.19,48.19
		c-9.56,9.56-2.79,25.91,10.73,25.91H428l0,0c139.74,0,253-113.26,253-253l0,0C681,154.54,567.74,41.28,428,41.28z"/>
	
		<use xlink:href="#Snoo"  width="432.21" height="377.72" x="-216.1" y="-188.86" transform="matrix(0.937 0 0 0.937 428.0047 292.1532)" style="overflow:visible;"/>
</g>
</svg>
